# xmcd
#
# Track frame offsets: 
#        150
#        14927
#        30670
#        45560
#        60776
#        74095
#        86264
#        101295
#        116274
#        131960
#
# Disc length: 1927 seconds
#
# Revision: 1
# Processed by: cddbd v1.5.2PL0 Copyright (c) Steve Scherf et al.
# Submitted via: ExactAudioCopyFreeDBPlugin 1.0
#
DISCID=8007850a
DTITLE=Mel Tillis - Mel and Nancy
DYEAR=1981
DGENRE=Country
TTITLE0=I Would Fly
TTITLE1=Where Would I Be
TTITLE2=Underground River
TTITLE3=After The Lovin'
TTITLE4=Where In Heaven On Earth
TTITLE5=Play Me Or Trade Me
TTITLE6=I'll Never Be Free
TTITLE7=Texas Cowboy Night
TTITLE8=It's A Far Cry From Over
TTITLE9=Cowboy Carry Me Home
EXTD=
EXTT0=
EXTT1=
EXTT2=
EXTT3=
EXTT4=
EXTT5=
EXTT6=
EXTT7=
EXTT8=
EXTT9=
PLAYORDER=
